<svg width="236" height="70" viewBox="0 0 236 70" fill="none" xmlns="http://www.w3.org/2000/svg">
    <path d="M227.604 70H8.267C3.71 70 0 66.276 0 61.717V8.27C0 3.71 3.71 0 8.267 0h219.337C232.159 0 236 3.71 236 8.27v53.447c0 4.559-3.841 8.283-8.396 8.283z" fill="#A6A6A6"/>
    <path d="M234.308 61.719a6.699 6.699 0 0 1-6.703 6.702H8.267c-3.704 0-6.711-2.999-6.711-6.702V8.269a6.716 6.716 0 0 1 6.711-6.712h219.337c3.708 0 6.702 3.01 6.702 6.712l.002 53.45z" fill="#000"/>
    <path d="M52.668 34.622c-.05-5.64 4.614-8.384 4.827-8.512-2.642-3.855-6.736-4.382-8.175-4.424-3.438-.362-6.774 2.06-8.525 2.06-1.787 0-4.484-2.025-7.392-1.965-3.74.057-7.24 2.226-9.16 5.593-3.961 6.865-1.007 16.954 2.789 22.503 1.898 2.717 4.116 5.752 7.02 5.645 2.84-.117 3.902-1.813 7.33-1.813 3.397 0 4.393 1.813 7.355 1.745 3.048-.049 4.968-2.73 6.8-5.472 2.194-3.115 3.075-6.183 3.11-6.34-.072-.025-5.921-2.26-5.979-9.02zM47.074 18.035c1.528-1.912 2.573-4.514 2.283-7.155-2.211.098-4.977 1.531-6.57 3.402-1.408 1.648-2.667 4.35-2.342 6.891 2.484.186 5.035-1.254 6.629-3.137zM93.78 55.132h-3.97l-2.175-6.84h-7.56l-2.07 6.84h-3.866l7.489-23.289h4.626l7.525 23.289zm-6.8-9.71-1.968-6.082c-.208-.621-.597-2.084-1.173-4.387h-.07c-.229.99-.597 2.453-1.104 4.387l-1.932 6.081h6.246zM113.039 46.529c0 2.856-.771 5.113-2.313 6.77-1.381 1.476-3.096 2.213-5.143 2.213-2.21 0-3.797-.795-4.764-2.384h-.07v8.846h-3.727V43.867c0-1.795-.047-3.638-.138-5.528h3.278l.208 2.662h.07c1.243-2.006 3.129-3.007 5.66-3.007 1.979 0 3.631.782 4.953 2.349 1.325 1.568 1.986 3.63 1.986 6.186zm-3.797.136c0-1.634-.367-2.981-1.105-4.042-.806-1.106-1.888-1.659-3.245-1.659-.919 0-1.755.308-2.501.915-.749.613-1.238 1.413-1.467 2.403-.115.462-.173.84-.173 1.138v2.8c0 1.221.374 2.252 1.122 3.093.748.842 1.72 1.262 2.916 1.262 1.404 0 2.497-.542 3.278-1.624.783-1.083 1.175-2.511 1.175-4.285zM132.333 46.529c0 2.856-.771 5.113-2.314 6.77-1.38 1.476-3.095 2.213-5.142 2.213-2.209 0-3.797-.795-4.762-2.384h-.07v8.846h-3.727V43.867c0-1.795-.047-3.638-.138-5.528h3.278l.208 2.662h.07c1.241-2.006 3.127-3.007 5.66-3.007 1.978 0 3.63.782 4.955 2.349 1.32 1.568 1.982 3.63 1.982 6.186zm-3.797.136c0-1.634-.369-2.981-1.106-4.042-.806-1.106-1.885-1.659-3.243-1.659-.922 0-1.755.308-2.504.915-.748.613-1.236 1.413-1.465 2.403-.113.462-.173.84-.173 1.138v2.8c0 1.221.374 2.252 1.119 3.093.748.84 1.72 1.262 2.92 1.262 1.403 0 2.496-.542 3.277-1.624.784-1.083 1.175-2.511 1.175-4.285zM153.905 48.601c0 1.981-.687 3.593-2.066 4.837-1.516 1.36-3.626 2.039-6.337 2.039-2.504 0-4.51-.483-6.03-1.451l.864-3.11c1.636.99 3.432 1.488 5.388 1.488 1.404 0 2.496-.319 3.281-.952.781-.634 1.171-1.484 1.171-2.545 0-.945-.321-1.741-.966-2.387-.642-.646-1.714-1.246-3.21-1.8-4.073-1.521-6.108-3.749-6.108-6.678 0-1.915.713-3.485 2.141-4.706 1.423-1.224 3.322-1.834 5.696-1.834 2.117 0 3.876.369 5.279 1.106l-.931 3.041c-1.312-.714-2.794-1.07-4.453-1.07-1.311 0-2.335.323-3.07.967-.62.576-.931 1.278-.931 2.109 0 .92.354 1.681 1.068 2.28.62.553 1.748 1.151 3.384 1.797 2.002.807 3.472 1.75 4.418 2.832.942 1.078 1.412 2.427 1.412 4.037zM166.228 41.139h-4.108v8.153c0 2.074.723 3.11 2.174 3.11.666 0 1.219-.058 1.656-.173l.103 2.833c-.734.275-1.701.413-2.898.413-1.472 0-2.623-.45-3.453-1.348-.827-.9-1.243-2.408-1.243-4.527v-8.465h-2.447v-2.8h2.447v-3.074l3.661-1.106v4.18h4.108v2.804zM184.763 46.597c0 2.581-.737 4.7-2.209 6.358-1.544 1.706-3.593 2.557-6.147 2.557-2.461 0-4.421-.818-5.882-2.452-1.462-1.635-2.192-3.698-2.192-6.184 0-2.603.751-4.734 2.26-6.392 1.505-1.659 3.536-2.488 6.09-2.488 2.462 0 4.442.817 5.937 2.453 1.43 1.588 2.143 3.637 2.143 6.148zm-3.867.121c0-1.549-.33-2.877-.999-3.985-.782-1.34-1.899-2.009-3.346-2.009-1.499 0-2.637.67-3.418 2.01-.67 1.109-1 2.458-1 4.054 0 1.549.33 2.877 1 3.983.806 1.34 1.932 2.009 3.384 2.009 1.423 0 2.54-.683 3.346-2.044.687-1.129 1.033-2.471 1.033-4.018zM196.878 41.62a6.46 6.46 0 0 0-1.175-.103c-1.311 0-2.325.495-3.038 1.487-.621.876-.932 1.982-.932 3.317v8.811h-3.725l.035-11.505c0-1.935-.047-3.697-.14-5.286h3.246l.137 3.213h.103c.393-1.105 1.014-1.994 1.863-2.66.831-.6 1.728-.9 2.694-.9.345 0 .656.025.932.069v3.557zM213.547 45.941c0 .668-.044 1.232-.137 1.692h-11.181c.044 1.66.584 2.928 1.622 3.803.943.782 2.161 1.174 3.658 1.174 1.655 0 3.165-.264 4.524-.794l.584 2.59c-1.588.693-3.462 1.038-5.624 1.038-2.601 0-4.643-.767-6.129-2.298-1.483-1.532-2.226-3.588-2.226-6.167 0-2.532.691-4.641 2.074-6.323 1.447-1.795 3.403-2.693 5.865-2.693 2.417 0 4.248.898 5.491 2.693.984 1.426 1.479 3.19 1.479 5.285zm-3.554-.968c.024-1.106-.219-2.061-.724-2.868-.645-1.038-1.636-1.556-2.97-1.556-1.219 0-2.21.506-2.967 1.521-.62.807-.989 1.774-1.103 2.901h7.764v.002zM85.747 17.516c0 2.06-.618 3.61-1.85 4.651-1.142.961-2.764 1.442-4.865 1.442-1.042 0-1.933-.045-2.68-.136V12.219a19.755 19.755 0 0 1 3.155-.239c2.002 0 3.51.436 4.528 1.308 1.14.985 1.712 2.394 1.712 4.228zm-1.932.05c0-1.335-.353-2.358-1.06-3.072-.706-.713-1.737-1.07-3.095-1.07-.577 0-1.069.039-1.476.12v8.555c.226.035.638.05 1.238.05 1.402 0 2.484-.39 3.246-1.17.762-.78 1.147-1.918 1.147-3.412zM95.989 19.315c0 1.269-.362 2.308-1.086 3.124-.758.838-1.764 1.256-3.019 1.256-1.21 0-2.173-.4-2.891-1.206-.717-.803-1.075-1.816-1.075-3.038 0-1.277.369-2.325 1.11-3.14.741-.813 1.737-1.22 2.993-1.22 1.21 0 2.181.4 2.917 1.203.7.78 1.05 1.789 1.05 3.02zm-1.9.06c0-.762-.165-1.415-.492-1.959-.384-.658-.931-.987-1.643-.987-.736 0-1.295.33-1.68.987-.328.544-.491 1.208-.491 1.992 0 .76.164 1.414.491 1.958.397.658.95.987 1.663.987.699 0 1.248-.334 1.643-1.005.34-.554.509-1.212.509-1.974zM109.723 15.258l-2.579 8.25h-1.678l-1.068-3.582a26.744 26.744 0 0 1-.663-2.666h-.033a19.403 19.403 0 0 1-.663 2.666l-1.134 3.582h-1.698l-2.424-8.25h1.882l.932 3.922c.226.928.411 1.811.56 2.648h.033c.136-.69.362-1.568.68-2.63l1.169-3.938h1.493l1.121 3.854c.271.94.491 1.844.661 2.716h.05c.124-.85.312-1.754.56-2.716l1-3.854h1.799v-.002zM119.22 23.508h-1.832v-4.725c0-1.456-.552-2.184-1.661-2.184-.543 0-.982.2-1.323.6-.337.4-.509.873-.509 1.414v4.893h-1.832v-5.89c0-.725-.022-1.51-.066-2.361h1.61l.086 1.29h.05c.213-.401.532-.732.949-.996a3.097 3.097 0 0 1 1.661-.464c.769 0 1.409.248 1.918.747.633.611.949 1.523.949 2.734v4.942zM124.272 23.508h-1.83V11.473h1.83v12.035zM135.058 19.315c0 1.269-.362 2.308-1.085 3.124-.759.838-1.766 1.256-3.019 1.256-1.212 0-2.175-.4-2.892-1.206-.717-.803-1.075-1.816-1.075-3.038 0-1.277.369-2.325 1.11-3.14.741-.813 1.738-1.22 2.991-1.22 1.212 0 2.182.4 2.92 1.203.699.78 1.05 1.789 1.05 3.02zm-1.902.06c0-.762-.164-1.415-.491-1.959-.383-.658-.932-.987-1.641-.987-.738 0-1.298.33-1.68.987-.329.544-.492 1.208-.492 1.992 0 .76.165 1.414.492 1.958.396.658.949.987 1.662.987.699 0 1.246-.334 1.642-1.005.34-.554.508-1.212.508-1.974zM143.925 23.508h-1.645l-.136-.95h-.051c-.563.757-1.365 1.137-2.407 1.137-.778 0-1.408-.25-1.881-.747-.43-.452-.645-1.013-.645-1.68 0-1.008.419-1.776 1.264-2.308.842-.532 2.027-.793 3.554-.78v-.155c0-1.087-.57-1.63-1.712-1.63-.813 0-1.529.206-2.148.612l-.373-1.204c.766-.475 1.712-.713 2.827-.713 2.154 0 3.234 1.138 3.234 3.413v3.038c0 .824.04 1.48.119 1.967zm-1.902-2.835V19.4c-2.021-.035-3.031.52-3.031 1.662 0 .43.115.753.351.968.236.215.537.322.895.322a1.85 1.85 0 0 0 1.121-.382 1.56 1.56 0 0 0 .664-1.298zM154.335 23.508h-1.626l-.085-1.325h-.051c-.519 1.008-1.404 1.512-2.647 1.512-.993 0-1.819-.39-2.475-1.17-.656-.781-.982-1.794-.982-3.039 0-1.335.354-2.416 1.068-3.242.69-.77 1.536-1.155 2.543-1.155 1.107 0 1.881.372 2.322 1.12h.035v-4.736h1.833v9.812c0 .803.021 1.544.065 2.223zm-1.898-3.48v-1.375c0-.238-.018-.43-.051-.577a2.086 2.086 0 0 0-.663-1.111c-.34-.3-.751-.45-1.225-.45-.684 0-1.218.271-1.612.815-.39.545-.587 1.24-.587 2.088 0 .816.187 1.477.563 1.986.397.543.931.814 1.601.814.601 0 1.082-.226 1.447-.679.354-.418.527-.922.527-1.51zM170.004 19.315c0 1.269-.362 2.308-1.086 3.124-.758.838-1.762 1.256-3.019 1.256-1.208 0-2.171-.4-2.891-1.206-.717-.803-1.075-1.816-1.075-3.038 0-1.277.368-2.325 1.11-3.14.741-.813 1.737-1.22 2.994-1.22 1.208 0 2.182.4 2.916 1.203.699.78 1.051 1.789 1.051 3.02zm-1.899.06c0-.762-.164-1.415-.491-1.959-.386-.658-.932-.987-1.645-.987-.734 0-1.294.33-1.68.987-.329.544-.491 1.208-.491 1.992 0 .76.164 1.414.491 1.958.397.658.949.987 1.663.987.699 0 1.25-.334 1.645-1.005.337-.554.508-1.212.508-1.974zM179.855 23.508h-1.831v-4.725c0-1.456-.552-2.184-1.662-2.184-.544 0-.983.2-1.322.6-.339.4-.508.873-.508 1.414v4.893h-1.834v-5.89c0-.725-.021-1.51-.065-2.361h1.608l.086 1.29h.051c.215-.401.533-.732.949-.996a3.098 3.098 0 0 1 1.662-.464c.768 0 1.408.248 1.916.747.635.611.95 1.523.95 2.734v4.942zM192.184 16.632h-2.017v4.008c0 1.018.358 1.527 1.068 1.527.329 0 .602-.028.817-.086l.047 1.392c-.362.136-.838.204-1.423.204-.724 0-1.287-.22-1.694-.661-.409-.441-.612-1.183-.612-2.224v-4.16h-1.204v-1.374h1.204v-1.512l1.795-.542v2.053h2.018v1.375h.001zM201.883 23.508h-1.834v-4.69c0-1.479-.552-2.22-1.659-2.22-.849 0-1.43.43-1.748 1.287-.054.18-.086.4-.086.66v4.961h-1.83V11.473h1.83v4.972h.035c.577-.905 1.404-1.357 2.476-1.357.758 0 1.386.249 1.884.748.621.621.932 1.545.932 2.766v4.906zM211.888 18.993c0 .329-.025.605-.068.831h-5.495c.025.816.287 1.437.796 1.867.465.385 1.064.578 1.798.578.813 0 1.555-.13 2.222-.39l.287 1.273c-.781.34-1.701.51-2.766.51-1.276 0-2.281-.377-3.008-1.129-.731-.753-1.093-1.762-1.093-3.03 0-1.244.338-2.28 1.018-3.105.709-.883 1.669-1.323 2.881-1.323 1.185 0 2.085.44 2.694 1.323.491.7.734 1.566.734 2.595zm-1.748-.474c.014-.545-.107-1.014-.355-1.41-.318-.509-.803-.764-1.458-.764-.598 0-1.086.248-1.458.747-.304.398-.484.872-.544 1.427h3.815z" fill="#fff"/>
</svg>
