<svg width="32" height="31" viewBox="0 0 32 31" fill="none" xmlns="http://www.w3.org/2000/svg">
<path d="M31.1143 15.0203C31.1143 6.7248 24.3645 0 16.0381 0C7.71176 0 0.961914 6.7248 0.961914 15.0203C0.961914 23.3157 7.71176 30.0405 16.0381 30.0405C24.3645 30.0405 31.1143 23.3157 31.1143 15.0203Z" fill="white"/>
<path d="M17.1016 23.3647V15.2946H19.8674L20.2821 12.1495H17.1016V10.1414C17.1016 9.23092 17.3598 8.61036 18.693 8.61036H20.3934V5.79819C19.5704 5.71291 18.7432 5.6716 17.9156 5.67445C15.4639 5.67445 13.7855 7.14007 13.7855 9.83178V12.1495H11.0127V15.2946H13.7855V23.3647H17.1016Z" fill="#1B1C3C"/>
</svg>
