<svg width="52" height="51" viewBox="0 0 52 51" fill="none" xmlns="http://www.w3.org/2000/svg">
    <path d="M51.773 25.47C51.773 11.405 40.327 0 26.208 0 12.09 0 .643 11.404.643 25.47c0 14.067 11.446 25.47 25.565 25.47 14.12 0 25.565-11.403 25.565-25.47z" fill="#1B1E3A"/>
    <path d="M28.012 39.62V25.936h4.69l.703-5.334h-5.393v-3.405c0-1.544.438-2.596 2.699-2.596h2.883V9.832a39.448 39.448 0 0 0-4.202-.21c-4.157 0-7.003 2.486-7.003 7.05v3.93h-4.702v5.334h4.702V39.62h5.623z" fill="#fff"/>
</svg>
