<svg width="237" height="70" viewBox="0 0 237 70" fill="none" xmlns="http://www.w3.org/2000/svg">
    <path fill-rule="evenodd" clip-rule="evenodd" d="M228.219 70H8.781C3.941 70 0 66.055 0 61.25V8.75C0 3.928 3.941 0 8.781 0h219.438C233.054 0 237 3.928 237 8.75v52.5c0 4.805-3.946 8.75-8.781 8.75z" fill="#000"/>
    <path fill-rule="evenodd" clip-rule="evenodd" d="M228.219 1.4c4.059 0 7.381 3.304 7.381 7.35v52.5c0 4.046-3.3 7.35-7.381 7.35H8.781c-4.06 0-7.381-3.304-7.381-7.35V8.75C1.4 4.704 4.7 1.4 8.78 1.4h219.438zm0-1.4H8.781C3.941 0 0 3.945 0 8.75v52.5C0 66.072 3.941 70 8.781 70h219.438c4.835 0 8.781-3.928 8.781-8.75V8.75c0-4.805-3.946-8.75-8.781-8.75z" fill="#A6A6A6"/>
    <path d="M124.852 23.156c-1.582 0-2.916-.554-3.971-1.645a5.604 5.604 0 0 1-1.605-4.015c0-1.593.541-2.942 1.605-4.011 1.05-1.091 2.384-1.645 3.967-1.645 1.565 0 2.899.554 3.972 1.645 1.064 1.104 1.605 2.453 1.605 4.01-.018 1.598-.559 2.946-1.605 4.011-1.051 1.1-2.385 1.65-3.968 1.65zm-47.092 0c-1.547 0-2.89-.546-3.99-1.624-1.09-1.073-1.643-2.43-1.643-4.032 0-1.602.554-2.959 1.644-4.033 1.077-1.077 2.42-1.623 3.99-1.623.767 0 1.512.153 2.227.463.702.3 1.273.711 1.696 1.213l.105.127-1.182 1.16-.122-.144c-.667-.794-1.56-1.182-2.742-1.182a3.789 3.789 0 0 0-2.734 1.117c-.763.746-1.15 1.724-1.15 2.906 0 1.183.387 2.16 1.15 2.907a3.789 3.789 0 0 0 2.734 1.117c1.125 0 2.07-.375 2.808-1.117.436-.437.706-1.048.802-1.82h-3.789v-1.632h5.415l.022.148a6 6 0 0 1 .078.82c0 1.506-.453 2.724-1.351 3.623-1.02 1.065-2.354 1.606-3.968 1.606zm62.614-.232h-1.67l-5.114-8.19.043 1.474v6.712h-1.669V12.075h1.905l.052.083 4.809 7.716-.043-1.47v-6.329h1.687v10.85zm-28.07 0h-1.691v-9.216h-2.935v-1.633h7.556v1.633H112.3v9.216h.004zm-6.003 0h-1.688V12.075h1.688v10.85zm-9.483 0H95.13v-9.216h-2.934v-1.633h7.556v1.633h-2.934v9.216zm-5.69-.017h-6.47V12.075h6.47v1.633H86.35v2.976h4.312v1.615h-4.313v2.976h4.779v1.632zm30.991-2.518a3.731 3.731 0 0 0 2.733 1.135c1.095 0 1.989-.371 2.734-1.135.741-.742 1.116-1.715 1.116-2.89 0-1.173-.375-2.15-1.111-2.888a3.741 3.741 0 0 0-2.734-1.135c-1.095 0-1.988.371-2.73 1.135-.741.742-1.116 1.715-1.116 2.889 0 1.174.371 2.151 1.108 2.889z" fill="#fff"/>
    <path fill-rule="evenodd" clip-rule="evenodd" d="M119.119 38.072c-4.12 0-7.46 3.13-7.46 7.445 0 4.277 3.362 7.446 7.46 7.446 4.12 0 7.46-3.151 7.46-7.446 0-4.316-3.34-7.445-7.46-7.445zm0 11.94c-2.254 0-4.194-1.867-4.194-4.512 0-2.684 1.944-4.512 4.194-4.512 2.254 0 4.194 1.828 4.194 4.512.005 2.662-1.94 4.513-4.194 4.513zm-16.276-11.94c-4.12 0-7.46 3.13-7.46 7.445 0 4.277 3.362 7.446 7.46 7.446 4.121 0 7.46-3.151 7.46-7.446 0-4.316-3.344-7.445-7.46-7.445zm0 11.94c-2.254 0-4.194-1.867-4.194-4.512 0-2.684 1.945-4.512 4.194-4.512 2.254 0 4.195 1.828 4.195 4.512 0 2.662-1.941 4.513-4.195 4.513zm-19.367-9.666v3.15h7.556c-.23 1.768-.815 3.073-1.709 3.968-1.107 1.108-2.816 2.313-5.83 2.313-4.643 0-8.274-3.753-8.274-8.401s3.631-8.4 8.275-8.4c2.507 0 4.334.99 5.69 2.255l2.232-2.234c-1.884-1.807-4.39-3.19-7.905-3.19-6.37 0-11.715 5.193-11.715 11.552 0 6.375 5.34 11.551 11.715 11.551 3.44 0 6.021-1.126 8.062-3.247 2.08-2.081 2.738-5.018 2.738-7.388 0-.738-.057-1.4-.175-1.964H83.472c.004-.004.004.035.004.035zm79.217 2.453c-.624-1.672-2.507-4.744-6.37-4.744-3.828 0-7.011 3.016-7.011 7.445 0 4.18 3.148 7.445 7.382 7.445 3.4 0 5.38-2.081 6.195-3.303l-2.524-1.694c-.837 1.244-2.002 2.06-3.654 2.06-1.67 0-2.838-.76-3.614-2.256l9.945-4.124c0 .004-.349-.83-.349-.83zm-10.141 2.487c-.079-2.876 2.232-4.338 3.884-4.338 1.304 0 2.39.642 2.76 1.576l-6.644 2.762zm-8.08 7.214h3.266V30.627h-3.266V52.5zm-5.362-12.774h-.118c-.737-.877-2.136-1.671-3.924-1.671-3.71 0-7.129 3.269-7.129 7.467 0 4.18 3.401 7.41 7.129 7.41 1.766 0 3.187-.799 3.924-1.693h.118v1.069c0 2.841-1.518 4.373-3.964 4.373-2.001 0-3.243-1.44-3.749-2.645l-2.838 1.187c.815 1.964 2.99 4.395 6.583 4.395 3.828 0 7.072-2.256 7.072-7.76V38.5h-3.087v1.226h-.017zm-3.75 10.287c-2.254 0-4.138-1.886-4.138-4.491 0-2.627 1.884-4.53 4.138-4.53 2.232 0 3.963 1.925 3.963 4.53.022 2.605-1.726 4.49-3.963 4.49zm42.623-19.386h-7.808V52.5h3.265v-8.283h4.548c3.614 0 7.167-2.623 7.167-6.786 0-4.163-3.54-6.804-7.172-6.804zm.096 10.535h-4.643v-7.506h4.643c2.446 0 3.828 2.02 3.828 3.753 0 1.715-1.399 3.753-3.828 3.753zm20.165-3.129c-2.372 0-4.818 1.052-5.829 3.343l2.895 1.205c.623-1.205 1.766-1.615 2.973-1.615 1.692 0 3.401 1.012 3.44 2.819v.231c-.584-.331-1.866-.838-3.4-.838-3.126 0-6.296 1.711-6.296 4.919 0 2.937 2.563 4.822 5.419 4.822 2.193 0 3.401-.99 4.155-2.138h.118v1.693h3.148v-8.38c0-3.9-2.895-6.06-6.623-6.06zm-.41 11.98c-1.068 0-2.563-.524-2.563-1.868 0-1.694 1.866-2.335 3.457-2.335 1.439 0 2.119.31 2.974.737a3.934 3.934 0 0 1-3.868 3.466zM216.351 38.5l-3.749 9.488h-.118l-3.885-9.488h-3.514l5.829 13.263-3.322 7.37h3.401l8.968-20.633h-3.61zm-29.395 14h3.266V30.627h-3.266V52.5z" fill="#fff"/>
    <path fill-rule="evenodd" clip-rule="evenodd" d="M18.242 13.184c-.506.545-.798 1.379-.798 2.47V54.35c0 1.091.293 1.925.816 2.449l.135.117 21.66-21.68v-.485L18.377 13.066l-.135.118z" fill="url(#uwwr7ulyba)"/>
    <path fill-rule="evenodd" clip-rule="evenodd" d="m47.262 42.484-7.224-7.23v-.507l7.224-7.231.157.096 8.546 4.861c2.446 1.38 2.446 3.657 0 5.054l-8.546 4.861-.157.096z" fill="url(#pfn5uaxf5b)"/>
    <path fill-rule="evenodd" clip-rule="evenodd" d="M47.42 42.388 40.037 35 18.242 56.816c.798.855 2.137.951 3.632.118L47.42 42.388z" fill="url(#5fvndo44dc)"/>
    <path fill-rule="evenodd" clip-rule="evenodd" d="M47.42 27.612 21.873 13.088c-1.495-.855-2.838-.738-3.632.118L40.038 35l7.381-7.388z" fill="url(#hiesocj0ed)"/>
    <path opacity=".2" fill-rule="evenodd" clip-rule="evenodd" d="M47.262 42.231 21.892 56.66c-1.418.816-2.682.76-3.497.017l-.136.136.136.118c.815.737 2.08.798 3.496-.018l25.546-14.524-.175-.157z" fill="#000"/>
    <path opacity=".12" fill-rule="evenodd" clip-rule="evenodd" d="M55.965 37.274 47.24 42.23l.157.157 8.546-4.861c1.225-.698 1.827-1.615 1.827-2.527-.074.838-.698 1.632-1.805 2.274z" fill="#000"/>
    <path opacity=".25" fill-rule="evenodd" clip-rule="evenodd" d="m21.874 13.341 34.09 19.385c1.108.624 1.732 1.44 1.828 2.274 0-.912-.602-1.829-1.827-2.527l-34.09-19.385c-2.447-1.401-4.43-.231-4.43 2.566v.253c0-2.802 1.983-3.95 4.43-2.566z" fill="#fff"/>
    <defs>
        <linearGradient id="uwwr7ulyba" x1="38.112" y1="15.236" x2="3.412" y2="24.474" gradientUnits="userSpaceOnUse">
            <stop stop-color="#00A0FF"/>
            <stop offset=".007" stop-color="#00A1FF"/>
            <stop offset=".26" stop-color="#00BEFF"/>
            <stop offset=".512" stop-color="#00D2FF"/>
            <stop offset=".76" stop-color="#00DFFF"/>
            <stop offset="1" stop-color="#00E3FF"/>
        </linearGradient>
        <linearGradient id="pfn5uaxf5b" x1="59.155" y1="35" x2="16.85" y2="35" gradientUnits="userSpaceOnUse">
            <stop stop-color="#FFE000"/>
            <stop offset=".409" stop-color="#FFBD00"/>
            <stop offset=".775" stop-color="orange"/>
            <stop offset="1" stop-color="#FF9C00"/>
        </linearGradient>
        <linearGradient id="5fvndo44dc" x1="43.406" y1="39.02" x2="15.513" y2="85.922" gradientUnits="userSpaceOnUse">
            <stop stop-color="#FF3A44"/>
            <stop offset="1" stop-color="#C31162"/>
        </linearGradient>
        <linearGradient id="hiesocj0ed" x1="12.754" y1=".313" x2="25.198" y2="21.26" gradientUnits="userSpaceOnUse">
            <stop stop-color="#32A071"/>
            <stop offset=".069" stop-color="#2DA771"/>
            <stop offset=".476" stop-color="#15CF74"/>
            <stop offset=".801" stop-color="#06E775"/>
            <stop offset="1" stop-color="#00F076"/>
        </linearGradient>
    </defs>
</svg>
