<svg width="32" height="31" viewBox="0 0 32 31" fill="none" xmlns="http://www.w3.org/2000/svg">
    <circle cx="16" cy="15" r="13" fill="#1B1C3C"/>
    <path d="M20.495 7.993h-8.988a2.599 2.599 0 0 0-2.601 2.592v8.953a2.6 2.6 0 0 0 2.601 2.593h8.988a2.601 2.601 0 0 0 2.601-2.593v-8.953a2.6 2.6 0 0 0-2.601-2.592zM16 19.716c-2.575 0-4.671-2.089-4.671-4.655 0-2.566 2.096-4.654 4.671-4.654 2.577 0 4.672 2.088 4.672 4.654S18.576 19.716 16 19.716zm4.823-8.347c-.61 0-1.106-.493-1.106-1.101a1.105 1.105 0 0 1 2.211 0c0 .608-.497 1.101-1.105 1.101z" fill="#fff"/>
    <path d="M16 12.374a2.695 2.695 0 0 0-2.697 2.687A2.696 2.696 0 0 0 16 17.749a2.696 2.696 0 0 0 2.698-2.688c0-1.48-1.21-2.687-2.698-2.687z" fill="#fff"/>
    <path d="M16 0C7.674 0 .924 6.725.924 15.02c0 8.296 6.75 15.02 15.076 15.02s15.076-6.724 15.076-15.02C31.076 6.725 24.326 0 16 0zm9.07 19.537c0 2.515-2.053 4.56-4.576 4.56h-8.987c-2.523 0-4.576-2.045-4.576-4.56v-8.952c0-2.513 2.053-4.56 4.576-4.56h8.987c2.523 0 4.575 2.047 4.575 4.56v8.952z" fill="#fff"/>
</svg>
