<svg width="52" height="51" viewBox="0 0 52 51" fill="none" xmlns="http://www.w3.org/2000/svg">
    <path d="M33.465 13.554h-15.24c-2.434 0-4.411 1.97-4.411 4.395v15.182c0 2.425 1.977 4.398 4.411 4.398h15.24c2.431 0 4.412-1.973 4.412-4.398V17.949c0-2.425-1.98-4.395-4.412-4.395zm-7.621 19.879c-4.367 0-7.922-3.542-7.922-7.893s3.555-7.893 7.922-7.893c4.37 0 7.922 3.542 7.922 7.893s-3.555 7.893-7.922 7.893zm8.178-14.154a1.872 1.872 0 0 1-1.875-1.867 1.876 1.876 0 0 1 3.75 0 1.874 1.874 0 0 1-1.875 1.867z" fill="#1B1E3A"/>
    <path d="M25.843 20.984c-2.52 0-4.573 2.042-4.573 4.555s2.053 4.558 4.573 4.558c2.523 0 4.576-2.045 4.576-4.558 0-2.51-2.053-4.555-4.576-4.555z" fill="#1B1E3A"/>
    <path d="M25.844 0C11.724 0 .279 11.403.279 25.47c0 14.067 11.446 25.47 25.565 25.47 14.119 0 25.565-11.403 25.565-25.47C51.409 11.404 39.963 0 25.844 0zm15.379 33.13c0 4.265-3.48 7.732-7.758 7.732h-15.24c-4.278 0-7.76-3.467-7.76-7.732V17.949c0-4.262 3.482-7.732 7.76-7.732h15.24c4.278 0 7.758 3.47 7.758 7.732V33.13z" fill="#1B1E3A"/>
</svg>
