<svg width="52" height="51" viewBox="0 0 52 51" fill="none" xmlns="http://www.w3.org/2000/svg">
    <path d="M.009 25.47C.009 11.405 11.454 0 25.574 0c14.119 0 25.565 11.404 25.565 25.47 0 14.067-11.446 25.47-25.565 25.47C11.454 50.94.009 39.538.009 25.47z" fill="#1B1E3A"/>
    <path fill-rule="evenodd" clip-rule="evenodd" d="M18.456 15.731c0 1.665-1.258 2.998-3.278 2.998h-.037c-1.945 0-3.202-1.333-3.202-2.998 0-1.7 1.295-2.996 3.277-2.996 1.982 0 3.203 1.296 3.24 2.996zm-.381 5.365v17.343H12.28V21.096h5.794zm20.894 17.343v-9.944c0-5.327-2.858-7.806-6.67-7.806-3.077 0-4.454 1.683-5.223 2.864v-2.457h-5.794c.076 1.628 0 17.344 0 17.344h5.794v-9.686c0-.519.038-1.036.19-1.407.42-1.035 1.373-2.108 2.974-2.108 2.097 0 2.935 1.59 2.935 3.921v9.28h5.794z" fill="#fff"/>
</svg>
