<svg width="31" height="31" viewBox="0 0 31 31" fill="none" xmlns="http://www.w3.org/2000/svg">
<path d="M0 15.0203C0 6.72482 6.74987 0 15.0762 0C23.4025 0 30.1524 6.72482 30.1524 15.0203C30.1524 23.3157 23.4025 30.0405 15.0762 30.0405C6.74987 30.0405 0 23.3157 0 15.0203Z" fill="white"/>
<path fill-rule="evenodd" clip-rule="evenodd" d="M10.8793 9.27685C10.8793 10.2589 10.1374 11.0446 8.94605 11.0446H8.92419C7.77721 11.0446 7.03564 10.2589 7.03564 9.27685C7.03564 8.27405 7.79976 7.51025 8.96854 7.51025C10.1374 7.51025 10.8571 8.27405 10.8793 9.27685ZM10.6542 12.4406V22.6682H7.23767V12.4406H10.6542ZM22.9757 22.6682L22.9758 16.804C22.9758 13.6626 21.2903 12.2005 19.042 12.2005C17.228 12.2005 16.4159 13.1931 15.9625 13.8895V12.4409H12.5454C12.5905 13.4006 12.5454 22.6685 12.5454 22.6685H15.9625V16.9565C15.9625 16.6509 15.9846 16.3459 16.075 16.1271C16.3219 15.5164 16.8841 14.8842 17.828 14.8842C19.0648 14.8842 19.5593 15.822 19.5593 17.1964V22.6682H22.9757Z" fill="#1B1C3C"/>
</svg>
