<svg width="219" height="58" viewBox="0 0 219 58" fill="none" xmlns="http://www.w3.org/2000/svg">
<path fill-rule="evenodd" clip-rule="evenodd" d="M116.874 39.2014C121.597 39.2014 124.737 35.6923 124.737 30.3785C124.737 25.0648 121.572 21.5557 116.874 21.5557C112.1 21.5557 108.96 25.0648 108.96 30.3785C108.96 35.6923 112.1 39.2014 116.874 39.2014ZM116.874 45.5428C107.628 45.5428 101.423 39.4771 101.423 30.4036C101.423 21.3803 107.628 15.3146 116.874 15.3146C126.069 15.3146 132.299 21.3803 132.299 30.4036C132.274 39.4771 126.069 45.5428 116.874 45.5428ZM89.1626 15.8409H96.4484V42.2342C96.4484 51.433 90.1927 57.4235 80.7212 57.4235C76.1739 57.4235 72.1541 56.1702 69.2147 53.739L70.8226 47.949C73.7118 50.1547 76.8522 51.0821 80.5705 51.0821C85.6956 51.0821 89.1877 47.573 89.1877 42.159V41.6076C87.1025 44.1391 84.0123 45.5177 80.47 45.5177C73.9379 45.5177 69.5162 40.981 69.5162 34.1132V15.8159H76.7768V32.9602C76.7768 36.6949 79.2892 39.1763 83.0325 39.1763C86.7257 39.1763 89.1877 36.6949 89.1877 32.9602L89.1626 15.8409ZM49.4678 39.2014C54.191 39.2014 57.3314 35.6923 57.3314 30.3785C57.3314 25.0648 54.1658 21.5557 49.4678 21.5557C44.7195 21.5557 41.5539 25.0648 41.5539 30.3785C41.5539 35.6923 44.6943 39.2014 49.4678 39.2014ZM49.4678 45.5428C40.2224 45.5428 34.0169 39.4771 34.0169 30.4036C34.0169 21.3803 40.2224 15.3146 49.4678 15.3146C58.6629 15.3146 64.8935 21.3803 64.8935 30.4036C64.8935 39.4771 58.688 45.5428 49.4678 45.5428ZM21.7819 15.8409H29.0425V42.2342C29.0425 51.433 22.7868 57.4235 13.3153 57.4235C8.768 57.4235 4.74827 56.1702 1.80884 53.739L3.41673 47.949C6.30591 50.1547 9.47145 51.0821 13.1646 51.0821C18.2897 51.0821 21.7819 47.573 21.7819 42.159V41.6076C19.6966 44.1391 16.6065 45.5177 13.0641 45.5177C6.53202 45.5177 2.11032 40.981 2.11032 34.1132V15.8159H9.39608V32.9602C9.39608 36.6949 11.9084 39.1763 15.6518 39.1763C19.3449 39.1763 21.807 36.6949 21.807 32.9602L21.7819 15.8409Z" fill="white"/>
<path d="M162.221 24.9896V32.2083H169.959C168.929 34.815 164.96 37.4217 160.211 37.2212C153.076 37.121 147.75 32.509 147.75 23.4356C147.75 13.7355 154.684 9.75018 160.463 9.75018C167.698 9.75018 170.487 14.6629 171.215 17.3699L180.511 14.1365C178.551 7.97058 172.874 0.551392 160.463 0.551392C148.278 0.551392 137.952 9.64992 137.952 23.4356C137.952 37.2212 148.077 46.1944 159.86 46.1944C168.376 46.1944 173.979 40.3042 174.28 38.4243V45.0665H181.566V25.0147H162.221V24.9896Z" fill="#FCC02B"/>
<path d="M201.288 14.8132C191.741 14.8132 185.335 21.0794 185.335 30.4036C185.335 39.7277 191.741 46.044 201.288 46.044C210.81 46.044 217.191 39.7527 217.191 30.4036C217.191 21.0544 210.785 14.8132 201.288 14.8132ZM208.649 30.4036C208.649 35.3915 205.685 38.7251 201.288 38.7251C196.766 38.7251 193.852 35.4666 193.852 30.4036C193.852 25.3405 196.766 22.057 201.288 22.057C205.685 22.082 208.649 25.4157 208.649 30.4036Z" fill="#FCC02B"/>
</svg>
