<svg width="295" height="77" viewBox="0 0 295 77" fill="none" xmlns="http://www.w3.org/2000/svg">
    <path fill-rule="evenodd" clip-rule="evenodd" d="M157.587 52.33c6.453 0 10.778-4.759 10.778-11.931 0-7.173-4.322-11.932-10.778-11.932s-10.848 4.756-10.848 11.932c0 7.175 4.322 11.932 10.848 11.932zm0 8.568c-12.672 0-21.177-8.201-21.177-20.496 0-12.295 8.502-20.426 21.177-20.426 12.676 0 21.113 8.201 21.113 20.426 0 12.225-8.502 20.496-21.113 20.496zm-37.948-40.19h9.977v35.723c0 12.448-8.583 20.569-21.552 20.569-6.229 0-11.73-1.684-15.754-4.976l2.201-7.835c3.954 3.002 8.279 4.247 13.337 4.247 7.03 0 11.791-4.756 11.791-12.078v-.732c-2.857 3.438-7.101 5.272-11.946 5.272-8.934 0-15.019-6.151-15.019-15.447V20.709h9.968v23.204c0 5.05 3.44 8.418 8.576 8.418 5.136 0 8.421-3.369 8.421-8.418V20.71zM65.278 52.332c6.452 0 10.777-4.76 10.777-11.932 0-7.173-4.322-11.932-10.777-11.932-6.456 0-10.849 4.756-10.849 11.932 0 7.175 4.332 11.932 10.849 11.932zm0 8.567c-12.672 0-21.178-8.201-21.178-20.496 0-12.295 8.502-20.426 21.178-20.426 12.675 0 21.113 8.201 21.113 20.426 0 12.225-8.502 20.496-21.113 20.496zm-37.945-40.19h9.977v35.723C37.31 68.88 28.737 77 15.758 77c-6.23 0-11.73-1.684-15.755-4.976l2.202-7.835c3.954 3.002 8.279 4.247 13.337 4.247 7.03 0 11.794-4.756 11.794-12.078v-.732c-2.86 3.438-7.1 5.272-11.946 5.272C6.446 60.898.371 54.747.371 45.45V20.709h9.964v23.204c0 5.05 3.444 8.418 8.577 8.418 5.132 0 8.42-3.369 8.42-8.418V20.71z" fill="#1B1C3C"/>
    <path d="M219.715 33.07v9.758h10.615c-1.411 3.535-6.857 7.066-13.364 6.783-9.761-.143-17.051-6.36-17.051-18.658 0-13.143 9.481-18.515 17.402-18.515 9.907 0 13.736 6.643 14.722 10.318l12.736-4.384C242.087 10.035 234.304 0 217.317 0S186.47 12.298 186.47 30.953s13.867 30.813 30.003 30.813c11.649 0 19.344-7.974 19.739-10.527v8.976h9.978V33.07h-26.475zM273.222 19.307c-13.074 0-21.86 8.478-21.86 21.092 0 12.614 8.786 21.161 21.86 21.161 13.073 0 21.778-8.504 21.778-21.161 0-12.658-8.752-21.092-21.778-21.092zM283.314 40.4c0 6.74-4.055 11.266-10.092 11.266-6.037 0-10.174-4.423-10.174-11.266s3.995-11.267 10.174-11.267c6.179 0 10.092 4.527 10.092 11.267z" fill="#FCC02B"/>
</svg>
