<svg width="14" height="12" viewBox="0 0 14 12" fill="none" xmlns="http://www.w3.org/2000/svg">
    <path d="M13.735 4.217a.165.165 0 0 1 .265.129v5.591c0 .725-.588 1.313-1.313 1.313H1.313A1.313 1.313 0 0 1 0 9.937V4.348c0-.136.156-.213.265-.128.613.476 1.425 1.08 4.214 3.106.577.421 1.55 1.307 2.521 1.302.976.008 1.969-.897 2.524-1.302 2.789-2.026 3.598-2.633 4.21-3.109zM7 7.75c.634.01 1.548-.798 2.007-1.132 3.629-2.633 3.905-2.863 4.741-3.52A.654.654 0 0 0 14 2.583v-.52C14 1.339 13.412.75 12.687.75H1.313C.588.75 0 1.338 0 2.063v.519c0 .202.093.391.252.517.836.653 1.112.886 4.741 3.519.46.334 1.373 1.143 2.007 1.132z" fill="#1B1C3C"/>
</svg>
